<svg width="122" height="14" viewBox="0 0 122 14" fill="none" xmlns="http://www.w3.org/2000/svg">
<path d="M27.3145 0.337891V3.75586H4.55078H4.54102C4.52799 3.75586 4.51497 3.75911 4.50195 3.76562C4.44987 3.77214 4.39779 3.77865 4.3457 3.78516C4.17643 3.81771 4.02669 3.86654 3.89648 3.93164C3.74674 4.00977 3.63607 4.10091 3.56445 4.20508C3.4668 4.36784 3.41797 4.59896 3.41797 4.89844V5.46484H0V4.89844C0 3.38802 0.530599 2.20964 1.5918 1.36328C2.45768 0.679688 3.44727 0.337891 4.56055 0.337891H27.3145ZM27.3145 5.46484V8.88281H4.55078H4.54102C4.52799 8.88281 4.51497 8.88281 4.50195 8.88281C4.44987 8.88932 4.39779 8.89909 4.3457 8.91211C4.17643 8.94466 4.02669 8.99349 3.89648 9.05859C3.74674 9.13021 3.63607 9.22135 3.56445 9.33203C3.4668 9.49479 3.41797 9.72591 3.41797 10.0254V14H0V10.0254C0 8.50846 0.530599 7.33008 1.5918 6.49023C2.45768 5.80664 3.44727 5.46484 4.56055 5.46484H27.3145ZM57.0801 10.582V14H36.5918C34.9251 14 33.444 13.4889 32.1484 12.4668C30.5599 11.2038 29.7656 9.43945 29.7656 7.17383V0.337891H33.1836V7.17383C33.1836 8.50846 33.6523 9.46549 34.5898 10.0449C34.9219 10.2467 35.2995 10.3932 35.7227 10.4844C35.8854 10.5169 36.0514 10.543 36.2207 10.5625C36.3509 10.5755 36.4746 10.582 36.5918 10.582H57.0801ZM81.7285 14H66.3574C64.6908 14 63.2096 13.4889 61.9141 12.4668C60.3711 11.2363 59.5768 9.53385 59.5312 7.35938V6.97852C59.5768 4.79753 60.3711 3.09831 61.9141 1.88086C63.2096 0.852214 64.6908 0.337891 66.3574 0.337891H81.7285C83.3952 0.337891 84.8763 0.852214 86.1719 1.88086C87.7148 3.09831 88.5091 4.79753 88.5547 6.97852V7.35938C88.5091 9.53385 87.7148 11.2363 86.1719 12.4668C84.8763 13.4889 83.3952 14 81.7285 14ZM64.3555 4.30273C63.418 4.87565 62.9492 5.83268 62.9492 7.17383C62.9492 8.50846 63.418 9.46549 64.3555 10.0449C64.6875 10.2467 65.0651 10.3932 65.4883 10.4844C65.651 10.5169 65.8171 10.543 65.9863 10.5625C66.1165 10.5755 66.2402 10.582 66.3574 10.582H81.709C81.8327 10.582 81.9596 10.5755 82.0898 10.5625C82.2591 10.543 82.4251 10.5169 82.5879 10.4844C83.0176 10.3932 83.3984 10.2467 83.7305 10.0449C84.668 9.46549 85.1367 8.50846 85.1367 7.17383C85.1367 5.83268 84.668 4.87565 83.7305 4.30273C83.3984 4.0944 83.0208 3.94466 82.5977 3.85352C82.4349 3.82096 82.2689 3.79492 82.0996 3.77539C81.9694 3.76237 81.8457 3.75586 81.7285 3.75586H66.377C66.2533 3.75586 66.1263 3.76237 65.9961 3.77539C65.8268 3.79492 65.6608 3.82096 65.498 3.85352C65.0684 3.94466 64.6875 4.0944 64.3555 4.30273ZM94.4141 0.337891V10.582H114.902C115.02 10.582 115.143 10.5755 115.273 10.5625C115.443 10.543 115.605 10.5169 115.762 10.4844C116.191 10.3932 116.572 10.2467 116.904 10.0449C117.842 9.46549 118.311 8.50846 118.311 7.17383V0.337891H121.729V7.17383C121.729 9.43945 120.934 11.2038 119.346 12.4668C118.05 13.4889 116.569 14 114.902 14H90.9961V0.337891H94.4141ZM104.658 7.17383V0.337891H108.066V7.17383H104.658Z" fill="white"/>
</svg>
