<svg width="800" height="175" viewBox="0 0 800 175" fill="none" xmlns="http://www.w3.org/2000/svg">
<path d="M0.264164 152.742C-2.39179 164.546 15.6342 172.17 24.9792 174.506H36.4146L33.8324 170.08C22.52 167.252 7.34667 159.825 19.446 152.742C34.5702 143.889 75.516 128.027 71.0895 114.747C66.6629 101.468 295.738 131.716 339.267 131.716C382.795 131.716 582.36 132.821 596.746 122.125C611.501 119.543 723.273 50.1931 708.886 42.0777C694.5 33.9623 752.291 20.0677 780.449 20.6825L741.348 115.485C741.348 115.485 749.832 126.183 739.135 136.143C728.437 146.102 774.842 113.567 774.547 122.125C774.252 130.683 749.832 146.102 749.832 146.102L766.063 143.889C778.605 134.421 800.148 115.485 785.982 115.485C771.817 115.485 759.054 123.969 754.628 119.543C750.201 115.116 754.628 115.485 754.628 115.485L800 1.86955C781.064 -3.2948 733.085 -0.860176 692.655 50.1931C652.078 94.4589 609.165 116.469 593.426 115.485C546.947 116.1 439.75 116.961 382.795 115.485C311.6 113.641 304.961 103.312 221.593 103.681C138.226 104.05 79.2049 107.37 74.7783 107.001C70.3517 106.632 60.023 112.165 44.8988 123.601C29.7747 135.036 3.5841 137.987 0.264164 152.742Z" fill="url(#paint0_linear_34_323)"/>
<defs>
<linearGradient id="paint0_linear_34_323" x1="400" y1="0" x2="400" y2="174.506" gradientUnits="userSpaceOnUse">
<stop offset="0.173651" stop-color="#FF05C8"/>
<stop offset="1" stop-color="#FF05C8" stop-opacity="0"/>
</linearGradient>
</defs>
</svg>
